<svg version="1.1" id="Layer_1" xmlns="http://www.w3.org/2000/svg" xmlns:xlink="http://www.w3.org/1999/xlink" x="0px" y="0px"
	 width="100%" viewBox="0 0 64 64" enable-background="new 0 0 64 64" xml:space="preserve">
<path fill="#000000" opacity="1.000000" stroke="none" 
	d="
M1.000000,43.000000 
	C1.000000,29.041508 1.000000,15.083015 1.000000,1.062262 
	C22.228428,1.062262 43.457073,1.062262 65.000000,1.062262 
	C65.000000,14.685958 65.000000,28.374321 64.563255,42.511433 
	C63.751049,41.509052 63.074329,40.062706 63.051182,38.605976 
	C62.938335,31.504032 63.000130,24.399311 63.000130,17.329369 
	C58.017899,17.329369 53.624702,17.329369 48.951672,17.329369 
	C48.951672,25.946695 48.951672,34.238701 48.951672,42.530704 
	C48.569099,42.833961 48.186523,43.137222 47.803951,43.440483 
	C46.446976,42.154572 45.090004,40.868660 43.356083,39.225548 
	C41.916431,39.225548 39.627388,39.225548 37.121593,39.225548 
	C37.618004,44.289486 34.307617,42.989452 31.347990,42.843163 
	C30.864042,41.061249 30.378889,39.274895 29.749603,36.957844 
	C35.716663,36.957844 41.149311,36.957844 46.301205,36.957844 
	C46.301205,30.049404 46.301205,23.582619 46.301205,17.115833 
	C45.867176,17.126965 45.433144,17.138098 44.999115,17.149229 
	C44.999115,21.755928 44.878666,26.366892 45.041588,30.967821 
	C45.149662,34.019764 43.945354,35.075798 40.935127,35.043591 
	C30.272762,34.929512 19.607542,34.922436 8.945398,35.046459 
	C5.809588,35.082939 4.878968,33.769829 4.961699,30.848545 
	C5.103147,25.854000 5.186841,20.843246 4.938323,15.857069 
	C4.755723,12.193439 5.950149,10.836646 9.742562,10.927297 
	C19.067869,11.150202 28.402218,10.972702 37.732666,11.014629 
	C41.117733,11.029840 45.093475,9.870557 46.673386,14.807310 
	C46.673386,12.980520 46.673386,11.153730 46.673386,9.311498 
	C32.071949,9.311498 17.670864,9.311498 3.347432,9.311498 
	C3.347432,18.688255 3.347432,27.749199 3.347432,37.251053 
	C9.072097,37.251053 14.452087,37.251053 19.923298,37.251053 
	C19.394760,39.392845 18.978851,41.078239 18.504612,43.000000 
	C12.631896,43.000000 6.815948,43.000000 1.000000,43.000000 
z"/>
<path fill="#FAB005" opacity="1.000000" stroke="none" 
	d="
M1.000000,43.428463 
	C6.815948,43.000000 12.631896,43.000000 18.504612,43.000000 
	C18.978851,41.078239 19.394760,39.392845 19.923298,37.251053 
	C14.452087,37.251053 9.072097,37.251053 3.347432,37.251053 
	C3.347432,27.749199 3.347432,18.688255 3.347432,9.311498 
	C17.670864,9.311498 32.071949,9.311498 46.673386,9.311498 
	C46.673386,11.153730 46.673386,12.980520 46.673386,14.807310 
	C45.093475,9.870557 41.117733,11.029840 37.732666,11.014629 
	C28.402218,10.972702 19.067869,11.150202 9.742562,10.927297 
	C5.950149,10.836646 4.755723,12.193439 4.938323,15.857069 
	C5.186841,20.843246 5.103147,25.854000 4.961699,30.848545 
	C4.878968,33.769829 5.809588,35.082939 8.945398,35.046459 
	C19.607542,34.922436 30.272762,34.929512 40.935127,35.043591 
	C43.945354,35.075798 45.149662,34.019764 45.041588,30.967821 
	C44.878666,26.366892 44.999115,21.755928 44.999115,17.149229 
	C45.433144,17.138098 45.867176,17.126965 46.301205,17.115833 
	C46.301205,23.582619 46.301205,30.049404 46.301205,36.957844 
	C41.149311,36.957844 35.716663,36.957844 29.749603,36.957844 
	C30.378889,39.274895 30.864042,41.061249 31.347990,42.843163 
	C34.307617,42.989452 37.618004,44.289486 37.121593,39.225548 
	C39.627388,39.225548 41.916431,39.225548 43.356083,39.225548 
	C45.090004,40.868660 46.446976,42.154572 47.803951,43.440483 
	C48.186523,43.137222 48.569099,42.833961 48.951672,42.530704 
	C48.951672,34.238701 48.951672,25.946695 48.951672,17.329369 
	C53.624702,17.329369 58.017899,17.329369 63.000130,17.329369 
	C63.000130,24.399311 62.938335,31.504032 63.051182,38.605976 
	C63.074329,40.062706 63.751049,41.509052 64.563255,42.980091 
	C65.000000,44.714359 65.000000,46.428715 64.562546,48.567993 
	C57.395981,48.912750 63.202602,54.847576 60.035316,56.716812 
	C42.048378,56.716812 23.657274,56.716812 4.876944,56.716812 
	C4.876944,54.004765 4.876944,51.574203 4.876944,49.000000 
	C3.323527,49.000000 2.161763,49.000000 1.000000,49.000000 
	C1.000000,47.285641 1.000000,45.571285 1.000000,43.428463 
M11.606401,46.999882 
	C24.024035,46.999882 36.441669,46.999882 48.859303,46.999882 
	C48.859299,47.637535 48.859291,48.275188 48.859287,48.912842 
	C34.940643,48.912842 21.022003,48.912842 7.206058,48.912842 
	C7.206058,51.328400 7.206058,52.943638 7.206058,54.777378 
	C24.465168,54.777378 41.521267,54.777378 58.763084,54.777378 
	C58.763084,52.840504 58.763084,51.111179 58.763084,49.341183 
	C56.026428,49.041355 53.521976,48.766972 51.017525,48.492584 
	C51.057713,48.075905 51.097900,47.659225 51.138084,47.242546 
	C54.730762,47.062294 58.323441,46.882038 61.916115,46.701786 
	C61.887127,46.313831 61.858135,45.925880 61.829147,45.537926 
	C42.609516,45.537926 23.389889,45.537926 4.170260,45.537926 
	C4.149406,46.025246 4.128553,46.512562 4.107699,46.999882 
	C6.284200,46.999882 8.460701,46.999882 11.606401,46.999882 
M51.000118,34.466755 
	C51.000900,36.121468 51.086216,37.781345 50.985565,39.429863 
	C50.747360,43.331188 53.417965,43.028252 55.968948,43.007565 
	C58.470844,42.987270 61.149338,43.434319 61.025581,39.492279 
	C60.897690,35.418453 60.997143,31.337492 60.997143,27.313202 
	C57.349682,27.313202 54.302444,27.313202 51.000118,27.313202 
	C51.000118,29.587606 51.000118,31.551189 51.000118,34.466755 
M27.846172,42.520702 
	C27.393999,40.684994 26.941828,38.849281 26.489655,37.013573 
	C25.976774,36.808563 25.463892,36.603554 24.951012,36.398540 
	C23.877563,38.337517 22.804115,40.276493 21.331881,42.935802 
	C23.841839,42.935802 25.471996,42.935802 27.846172,42.520702 
z"/>
<path fill="#000000" opacity="1.000000" stroke="none" 
	d="
M1.000000,49.471199 
	C2.161763,49.000000 3.323527,49.000000 4.876944,49.000000 
	C4.876944,51.574203 4.876944,54.004765 4.876944,56.716812 
	C23.657274,56.716812 42.048378,56.716812 60.035316,56.716812 
	C63.202602,54.847576 57.395981,48.912750 64.562546,48.996452 
	C65.000000,54.308628 65.000000,59.617252 65.000000,64.962936 
	C43.790245,64.962936 22.580416,64.962936 1.000000,64.962936 
	C1.000000,59.986881 1.000000,54.964638 1.000000,49.471199 
z"/>
<path fill="#000000" opacity="1.000000" stroke="none" 
	d="
M11.121801,46.999882 
	C8.460701,46.999882 6.284200,46.999882 4.107699,46.999882 
	C4.128553,46.512562 4.149406,46.025246 4.170260,45.537926 
	C23.389889,45.537926 42.609516,45.537926 61.829147,45.537926 
	C61.858135,45.925880 61.887127,46.313831 61.916115,46.701786 
	C58.323441,46.882038 54.730762,47.062294 51.138084,47.242546 
	C51.097900,47.659225 51.057713,48.075905 51.017525,48.492584 
	C53.521976,48.766972 56.026428,49.041355 58.763084,49.341183 
	C58.763084,51.111179 58.763084,52.840504 58.763084,54.777378 
	C41.521267,54.777378 24.465168,54.777378 7.206058,54.777378 
	C7.206058,52.943638 7.206058,51.328400 7.206058,48.912842 
	C21.022003,48.912842 34.940643,48.912842 48.859287,48.912842 
	C48.859291,48.275188 48.859299,47.637535 48.859303,46.999882 
	C36.441669,46.999882 24.024035,46.999882 11.121801,46.999882 
z"/>
<path fill="#000000" opacity="1.000000" stroke="none" 
	d="
M51.000118,33.990765 
	C51.000118,31.551189 51.000118,29.587606 51.000118,27.313202 
	C54.302444,27.313202 57.349682,27.313202 60.997143,27.313202 
	C60.997143,31.337492 60.897690,35.418453 61.025581,39.492279 
	C61.149338,43.434319 58.470844,42.987270 55.968948,43.007565 
	C53.417965,43.028252 50.747360,43.331188 50.985565,39.429863 
	C51.086216,37.781345 51.000900,36.121468 51.000118,33.990765 
z"/>
<path fill="#000000" opacity="1.000000" stroke="none" 
	d="
M27.474163,42.728252 
	C25.471996,42.935802 23.841839,42.935802 21.331881,42.935802 
	C22.804115,40.276493 23.877563,38.337517 24.951012,36.398540 
	C25.463892,36.603554 25.976774,36.808563 26.489655,37.013573 
	C26.941828,38.849281 27.393999,40.684994 27.474163,42.728252 
z"/>
</svg>